<svg xmlns="http://www.w3.org/2000/svg" viewBox="0 0 24 24" fill="#fff"><path d="M14.51 2.09c.83.13 1.62.47 2.33 1a5.1 5.1 0 0 1 1.05 1.05c.53.71.87 1.5 1 2.33.17 1.12.17 4.69 0 5.81-.13.83-.47 1.62-1 2.33s-1.5.87-2.33 1c-1.12.17-4.69.17-5.81 0-.83-.13-1.62-.47-2.33-1a5.1 5.1 0 0 1-1.05-1.05c-.53-.71-.87-1.5-1-2.33-.17-1.12-.17-4.69 0-5.81.13-.83.47-1.62 1-2.33.71-.53 1.5-.87 2.33-1 1.12-.17 4.69-.17 5.81 0Zm-2.3 8.7c0-2.35-1.92-4.26-4.28-4.26S3.65 8.44 3.65 10.8c0 .24 0 .48.05.71h2.81c-.04-.23-.06-.47-.06-.71 0-1.02.83-1.85 1.85-1.85s1.85.83 1.85 1.85c0 .73-.42 1.35-1.03 1.65.25.12.51.22.78.29.6.14 1.25.14 1.88 0 .83-.2 1.55-.7 2.05-1.39.29-.4.52-.86.66-1.35h-2.8c.01.02 0 .04 0 .06Zm-1.4 5.39c-.6.13-1.25.13-1.88 0-1.46-.34-2.6-1.48-2.94-2.94-.05-.24-.05-.48-.05-.71h2.81c.04.23.06.47.06.71 0 1.02.83 1.85 1.85 1.85.23 0 .46-.04.68-.12.2-.07.38-.18.54-.31.1-.09.19-.19.26-.3.12-.19.2-.4.24-.63h-2.99c-.01-.02-.01-.04-.01-.06 0-2.35 1.92-4.26 4.28-4.26.24 0 .48 0 .71.05v2.81c-.23-.04-.47-.06-.71-.06-1.02 0-1.85.83-1.85 1.85 0 .73.42 1.35 1.03 1.65-.25.12-.51.22-.78.29-.6.14-1.25.14-1.88 0-.83-.2-1.55-.7-2.05-1.39-.29-.4-.52-.86-.66-1.35h2.99c.01-.02 0-.04 0-.06 0-1.02.83-1.85 1.85-1.85s1.85.83 1.85 1.85c0 1.46-1.19 2.65-2.65 2.65Z" /></svg>
